<?xml version="1.0" encoding="UTF-8"?>
<svg xmlns="http://www.w3.org/2000/svg" xmlns:xlink="http://www.w3.org/1999/xlink" viewBox="0 0 48 48" width="48px" height="48px">
<g id="surface96732949">
<path style=" stroke:none;fill-rule:nonzero;fill:rgb(0%,0%,0%);fill-opacity:1;"
      d="M 25.078125 20.511719 L 25.078125 28.078125 L 35.859375 28.078125 C 34.449219 32.664062 30.617188 35.945312 25.078125 35.945312 C 18.480469 35.945312 13.132812 30.59375 13.132812 24 C 13.132812 17.40625 18.480469 12.058594 25.078125 12.058594 C 28.046875 12.058594 30.753906 13.144531 32.84375 14.933594 L 38.414062 9.363281 C 34.894531 6.15625 30.214844 4.199219 25.078125 4.199219 C 14.140625 4.199219 5.273438 13.066406 5.273438 24 C 5.273438 34.933594 14.140625 43.800781 25.078125 43.800781 C 41.703125 43.800781 45.371094 28.257812 43.742188 20.539062 Z M 25.078125 20.511719 "/>
</g>
</svg>
