<?xml version="1.0" encoding="UTF-8"?>
<svg xmlns="http://www.w3.org/2000/svg" xmlns:xlink="http://www.w3.org/1999/xlink" viewBox="0 0 32 32" width="32px" height="32px">
    <g id="surface50425111">
        <path style=" stroke:none;fill-rule:nonzero;fill:rgb(10.196079%,73.725492%,61.176473%);fill-opacity:1;" d="M 16.003906 14.0625 L 16.003906 18.265625 L 21.992188 18.265625 C 21.210938 20.8125 19.082031 22.636719 16.003906 22.636719 C 12.339844 22.636719 9.367188 19.664062 9.367188 16 C 9.367188 12.335938 12.335938 9.363281 16.003906 9.363281 C 17.652344 9.363281 19.15625 9.96875 20.316406 10.964844 L 23.410156 7.867188 C 21.457031 6.085938 18.855469 5 16.003906 5 C 9.925781 5 5 9.925781 5 16 C 5 22.074219 9.925781 27 16.003906 27 C 25.238281 27 27.277344 18.363281 26.371094 14.078125 Z M 16.003906 14.0625 "/>
    </g>
    <!-- Red lower RIGHT corner. Shows that an update is available. Large-->
    <!-- <circle cx="27" cy="27" r="5" fill="#E74C3C"/> -->
    
    <!-- Green lower LEFT corner.  Shows that an instance of MyGeotab is running. -->
    <circle cx="4.5" cy="27.5" r="4.5" fill="#1abc9c"/>
    <!-- Blue lower RIGHT corner. Shows that the Gateway is running.-->
    <circle cx="28" cy="28" r="4" fill="#1990FA"/>

    <!-- Yellow lower LEFT corner. Shows that an instance of MyGeotab is running. -->
    <!-- <circle cx="5" cy="27" r="5" fill="#ebfb0f"/> -->


    <!-- Green upper RIGHT corner. Shows that an instance of MyGeotab is running. -->
    <!-- <circle cx="27" cy="5" r="5" fill="#1abc9c"/> -->
    <!-- Green lower LEFT corner. Shows that an instance of MyGeotab is running. -->
<!--    <circle cx="5" cy="27" r="5" fill="#1abc9c" stroke="#fff"/>-->

       <!-- Blue middle. Shows that the Gateway is running. -->
        <!-- <circle cx="16" cy="29.5" r="3" fill="#1990FA"/> -->
</svg>
