<?xml version="1.0" encoding="UTF-8"?>
<svg width="20" height="20" viewBox="0 0 15 25" xmlns="http://www.w3.org/2000/svg">
    <g id="svgGroup" stroke-linecap="round" fill-rule="evenodd" font-size="9pt" stroke="#000" stroke-width="0.25mm" fill="green" style="stroke:green;stroke-width:0.25mm;fill:green">
        <path d="M 14.25 12.235 L 14.25 20.422 Q 13.11 21.891 11.375 22.633 A 9.296 9.296 0 0 1 8.34 23.349 A 10.98 10.98 0 0 1 7.578 23.375 Q 4.078 23.375 2.078 21.032 Q 0.328 18.98 0.05 15.541 A 16.319 16.319 0 0 1 0 14.532 L 0 9 A 16.077 16.077 0 0 1 0.186 6.475 Q 0.594 3.916 1.899 2.321 A 6.172 6.172 0 0 1 5.803 0.119 A 9.168 9.168 0 0 1 7.313 0 Q 10.453 0 12.235 1.735 Q 14.016 3.469 14.235 6.735 L 12.453 6.735 A 9.962 9.962 0 0 0 12.2 5.301 Q 11.799 3.75 10.914 2.899 Q 9.799 1.825 7.842 1.703 A 8.283 8.283 0 0 0 7.328 1.688 A 6.609 6.609 0 0 0 5.654 1.887 A 4.4 4.4 0 0 0 3.164 3.539 Q 1.781 5.391 1.781 8.969 L 1.781 14.219 A 13.409 13.409 0 0 0 1.942 16.362 Q 2.275 18.42 3.305 19.75 A 4.947 4.947 0 0 0 6.91 21.688 A 7.083 7.083 0 0 0 7.578 21.719 Q 10.563 21.719 12.453 19.828 L 12.453 13.907 L 7.469 13.907 L 7.469 12.235 L 14.25 12.235 Z" vector-effect="non-scaling-stroke"/>
    </g>
</svg>