<?xml version="1.0" encoding="UTF-8"?>
<svg xmlns="http://www.w3.org/2000/svg" xmlns:xlink="http://www.w3.org/1999/xlink" viewBox="0 0 32 32" width="32px" height="32px">
<g id="surface65279335">
<path style=" stroke:none;fill-rule:nonzero;fill:rgb(18.039216%,80.000001%,44.313726%);fill-opacity:1;" d="M 16.828125 13.324219 L 16.828125 19.132812 L 25.105469 19.132812 C 24.023438 22.648438 21.082031 25.167969 16.828125 25.167969 C 11.765625 25.167969 7.660156 21.0625 7.660156 16 C 7.660156 10.9375 11.765625 6.832031 16.828125 6.832031 C 19.105469 6.832031 21.183594 7.664062 22.789062 9.039062 L 27.066406 4.761719 C 24.363281 2.300781 20.769531 0.800781 16.828125 0.800781 C 8.433594 0.800781 1.625 7.605469 1.625 16 C 1.625 24.394531 8.433594 31.199219 16.828125 31.199219 C 29.589844 31.199219 32.40625 19.269531 31.15625 13.34375 Z M 16.828125 13.324219 "/>
</g>
</svg>
